PathFileType	4	(X/Y/Z)	OpenSim_Sub07_EMGBaseline_Gyro.trc
DataRate	CameraRate	NumFrames	NumMarkers	Units	OrigDataRate	OrigDataStartFrame	OrigNumFrames
100	100	13	8	m	100	4268	6828
Frame#	Time	torso_imu_offset_imu	pelvis_imu_offset_imu	tibia_r_imu_offset_imu	femur_r_imu_offset_imu	tibia_l_imu_offset_imu	femur_l_imu_offset_imu	toes_r_imu_offset_imu	toes_l_imu_offset_imu
				X1	Y1	Z1	X2	Y2	Z2	X3	Y3	Z3	X4	Y4	Z4	X5	Y5	Z5	X6	Y6	Z6	X7	Y7	Z7	X8		Y8	Z8	

4268	42.67000000	-0.01527500	0.01319100	-0.05478700	-0.15787400	-0.10762700	-0.17084100	-0.17565500	-0.40084600	-1.10552400	-0.05339000	-0.00142500	-0.57174900	0.85672600	-0.66110200	-0.45572200	-0.19423500	-0.40332100	0.16330800	-0.07486700	-0.22409200	0.05508600	0.30135900	0.28808400	-0.29180500
4269	42.68000000	0.00133600	-0.00095000	-0.03971000	-0.21908600	-0.07432000	-0.18665100	-0.23651100	-0.42601100	-1.16508500	-0.11550900	0.03504100	-0.50685100	0.87355900	-0.70491800	-0.01496500	0.64850200	-0.65857700	0.21570400	-0.05141800	-0.25717600	0.07893200	-0.14078600	-0.83752500	0.12154000
4270	42.69000000	0.01980000	-0.02122000	-0.02771500	-0.25589300	-0.02272800	-0.18958200	-0.26542200	-0.46338200	-1.20099000	-0.29706300	0.08485500	-0.40019600	0.48272200	-0.36748900	0.38975400	1.27006100	-0.76713500	0.28264300	-0.27396600	-0.44199100	0.20142900	-1.17945100	-1.64078900	0.40383000
4271	42.70000000	0.04672900	-0.04129400	-0.02370100	-0.30014300	0.00886400	-0.17672900	-0.27433500	-0.46765800	-1.23428900	-0.51930600	0.14159700	-0.28422500	0.03252400	-0.00361100	0.78964100	1.37105800	-0.75945400	0.21963300	-0.27476200	-0.52410800	0.22605300	-1.05906300	-2.45288100	0.44454300
4272	42.71000000	0.08325900	-0.07320300	-0.01407300	-0.34397600	0.02377900	-0.14024400	-0.27114900	-0.47344000	-1.28104600	-0.70024000	0.21809100	-0.19809600	-0.16316900	0.22046800	1.22648100	1.06937600	-0.67320300	0.01194900	-0.34739200	-0.65486300	0.30423200	-1.74925600	-1.55533700	0.33980800
4273	42.72000000	0.13229100	-0.10284200	-0.00327200	-0.36443100	0.02504700	-0.15313400	-0.30687900	-0.47944200	-1.34868400	-0.81655600	0.25922900	-0.12984600	-0.50273600	0.24957800	1.68800600	0.69867400	-0.60812500	-0.11705000	-0.41316100	-0.75590300	0.40364400	-0.22514800	-2.43108700	0.24684000
4274	42.73000000	0.17857100	-0.12608000	0.00799100	-0.34885200	0.00261500	-0.16457600	-0.24262100	-0.45004100	-1.42892000	-0.85756200	0.22908000	-0.05287800	-1.10021600	0.07482400	1.88644100	0.33698600	-0.59556100	-0.00317000	-0.47573900	-0.87696500	0.52384700	-1.53836000	-1.75523000	0.32992300
4275	42.74000000	0.22848100	-0.12530700	0.01198900	-0.27815300	-0.06664500	-0.17512600	-0.19957400	-0.45143300	-1.51591300	-0.81834900	0.16905800	0.02967100	-1.54282800	-0.20471900	1.57097100	-0.09460600	-0.60307900	0.10451100	-0.56994000	-1.06789200	0.62053500	-1.31464600	-2.32458400	0.45012000
4276	42.75000000	0.25429900	-0.12155300	0.00585800	-0.26136100	-0.14743500	-0.21542500	-0.19230200	-0.44840300	-1.58632500	-0.76375700	0.11132400	0.10036200	-1.31689500	-0.45253000	1.09506000	-0.48099500	-0.57363900	0.01185800	-0.64165400	-1.25063300	0.65878200	0.00077200	-2.65275900	0.36256500
4277	42.76000000	0.25928500	-0.13096300	0.00102600	-0.27154700	-0.17915900	-0.20664700	-0.18336500	-0.44881700	-1.63558100	-0.69334400	0.08137800	0.14143400	-1.02686000	-0.30003200	0.79424200	-0.68979200	-0.65097100	-0.18607400	-0.64222800	-1.46548400	0.65148400	-0.02383400	-2.53778200	0.33547200
4278	42.77000000	0.25929800	-0.15104000	-0.00780700	-0.29702100	-0.18941100	-0.18215700	-0.25627300	-0.47447500	-1.67994800	-0.61934300	0.06891700	0.18462600	-1.04916200	0.13693700	0.75662700	-0.84467200	-0.84460100	-0.27709700	-0.71603900	-1.65414900	0.68315200	-0.40930400	-2.03847700	0.51401000
4279	42.78000000	0.26278300	-0.15428600	-0.02202100	-0.29246700	-0.17598000	-0.16074400	-0.31819200	-0.50613100	-1.75296000	-0.54944700	0.03880800	0.26672900	-1.17561600	0.47166100	0.96689600	-1.24110300	-0.82207500	-0.20672900	-0.72797100	-1.89915600	0.72112400	-0.06312500	-1.74018800	0.53611600
4280	42.79000000	0.27575100	-0.14598700	-0.03801300	-0.24264500	-0.15300300	-0.15556100	-0.36516500	-0.55396400	-1.83497500	-0.47921400	-0.01230300	0.39058600	-0.91488600	0.52958000	1.16500500	-1.88170800	-0.31865800	-0.02991000	-0.71308500	-2.20161800	0.75446100	0.40397800	-1.17694700	0.40630700
